<?xml version="1.0" encoding="UTF-8" standalone="no"?>
<svg
   xmlns:dc="http://purl.org/dc/elements/1.1/"
   xmlns:cc="http://creativecommons.org/ns#"
   xmlns:rdf="http://www.w3.org/1999/02/22-rdf-syntax-ns#"
   xmlns:svg="http://www.w3.org/2000/svg"
   xmlns="http://www.w3.org/2000/svg"
   xmlns:xlink="http://www.w3.org/1999/xlink"
   width="90.896927"
   height="144.26512"
   id="svg3488"
   version="1.1">
  <defs
     id="defs3490">
    <linearGradient
       xlink:href="#id19"
       id="linearGradient3448"
       gradientUnits="userSpaceOnUse"
       x1="1938.8101"
       y1="1652.35"
       x2="412.75601"
       y2="753.06299" />
    <linearGradient
       id="id19"
       gradientUnits="userSpaceOnUse"
       x1="1938.8101"
       y1="1652.35"
       x2="412.75601"
       y2="753.06299">
      <stop
         offset="0"
         style="stop-color:#2957A4"
         id="stop90" />
      <stop
         offset="0.4"
         style="stop-color:#006CB5"
         id="stop92" />
      <stop
         offset="0.729412"
         style="stop-color:#00AFEF"
         id="stop94" />
      <stop
         offset="1"
         style="stop-color:#00AFEF"
         id="stop96" />
    </linearGradient>
    <clipPath
       id="id9">
      <path
         d="m 1259,1524 c 192,77 355,-63 342,-298 51,79 80,172 80,273 0,279 -226,505 -505,505 -279,0 -505,-226 -505,-505 0,-67 13,-130 36,-188 v 0 c 43,-130 126,-248 227,-364 156,-178 235,-362 206,-546 136,214 162,412 93,596 -65,171 -245,418 27,527 z"
         id="path36" />
    </clipPath>
    <linearGradient
       id="id22"
       gradientUnits="userSpaceOnUse"
       x1="878.84302"
       y1="824.98401"
       x2="1755.17"
       y2="1486.37">
      <stop
         offset="0"
         style="stop-color:#2957A4"
         id="stop109" />
      <stop
         offset="0.4"
         style="stop-color:#006CB5"
         id="stop111" />
      <stop
         offset="0.858824"
         style="stop-color:#00AFEF"
         id="stop113" />
      <stop
         offset="1"
         style="stop-color:#00AFEF"
         id="stop115" />
    </linearGradient>
    <linearGradient
       id="id23"
       gradientUnits="userSpaceOnUse"
       x1="1268.34"
       y1="1365.9301"
       x2="1470.96"
       y2="876.26398">
      <stop
         offset="0"
         style="stop-color:#0082C6"
         id="stop118" />
      <stop
         offset="0.34902"
         style="stop-color:#0082C6"
         id="stop120" />
      <stop
         offset="0.760784"
         style="stop-color:#00AFEF"
         id="stop122" />
      <stop
         offset="1"
         style="stop-color:#00AFEF"
         id="stop124" />
    </linearGradient>
    <clipPath
       id="id10">
      <path
         d="m 1334,790 c 18,127 1,240 -59,339 -97,159 -92,284 36,318 119,32 232,-63 220,-230 -10,-148 -84,-289 -196,-426 z"
         id="path39" />
    </clipPath>
    <linearGradient
       id="id21"
       gradientUnits="userSpaceOnUse"
       x1="1261.76"
       y1="1443.1801"
       x2="1509.51"
       y2="878.84302">
      <stop
         offset="0"
         style="stop-color:#2957A4"
         id="stop100" />
      <stop
         offset="0.4"
         style="stop-color:#006CB5"
         id="stop102" />
      <stop
         offset="0.729412"
         style="stop-color:#00AFEF"
         id="stop104" />
      <stop
         offset="1"
         style="stop-color:#0098DA"
         id="stop106" />
    </linearGradient>
    <linearGradient
       id="id20"
       gradientUnits="userSpaceOnUse"
       xlink:href="#id19"
       x1="3446.0801"
       y1="744.38599"
       x2="2226.8301"
       y2="25.8976" />
    <linearGradient
       id="linearGradient3459"
       gradientUnits="userSpaceOnUse"
       x1="1938.8101"
       y1="1652.35"
       x2="412.75601"
       y2="753.06299">
      <stop
         offset="0"
         style="stop-color:#2957A4"
         id="stop3461" />
      <stop
         offset="0.4"
         style="stop-color:#006CB5"
         id="stop3463" />
      <stop
         offset="0.729412"
         style="stop-color:#00AFEF"
         id="stop3465" />
      <stop
         offset="1"
         style="stop-color:#00AFEF"
         id="stop3467" />
    </linearGradient>
  </defs>
  <metadata
     id="metadata3494">
    <rdf:RDF>
      <cc:Work
         rdf:about="">
        <dc:format>image/svg+xml</dc:format>
        <dc:type
           rdf:resource="http://purl.org/dc/dcmitype/StillImage" />
        <dc:title></dc:title>
      </cc:Work>
    </rdf:RDF>
  </metadata>
  <g
     transform="matrix(0.08999696,0,0,0.08999696,-60.38796,-36.088781)"
     id="g348"
     style="fill-rule:evenodd">
    <path
       style="fill:url(#linearGradient3448)"
       id="path350"
       d="m 1259,1524 c 192,77 355,-63 342,-298 51,79 80,172 80,273 0,279 -226,505 -505,505 -279,0 -505,-226 -505,-505 0,-67 13,-130 36,-188 v 0 c 43,-130 126,-248 227,-364 156,-178 235,-362 206,-546 136,214 162,412 93,596 -65,171 -245,418 27,527 z"
       class="fil34" />
    <g
       clip-path="url(#id9)"
       id="g352">
      <g
         id="g354">
        <path
           style="fill:url(#id22)"
           d="m 1185,479 c 81,208 24,387 -88,558 -198,304 -173,576 42,680 237,115 598,-39 463,-491 L 1286,521 1186,478 Z"
           class="fil35"
           id="path356" />
      </g>
    </g>
    <path
       style="fill:none"
       id="path358"
       d="m 1259,1524 c 192,77 355,-63 342,-298 51,79 80,172 80,273 0,279 -226,505 -505,505 -279,0 -505,-226 -505,-505 0,-67 13,-130 36,-188 v 0 c 43,-130 126,-248 227,-364 156,-178 235,-362 206,-546 136,214 162,412 93,596 -65,171 -245,418 27,527 z"
       class="fil12" />
    <path
       style="fill:url(#id23)"
       id="path360"
       d="m 1334,790 c 18,127 1,240 -59,339 -97,159 -92,284 36,318 119,32 232,-63 220,-230 -10,-148 -84,-289 -196,-426 z"
       class="fil36" />
    <g
       clip-path="url(#id10)"
       id="g362">
      <g
         id="g364">
        <path
           style="fill:url(#id21)"
           d="m 1352,812 c 235,449 -68,654 -140,465 l -41,22 30,142 102,69 h 5 l 121,-29 72,-77 c 12,-8 0,-5 10,-10 l 42,-89 3,-5 43,-216 -86,-187 c -2,-7 0,-5 -3,-8 l -158,-78 z"
           class="fil37"
           id="path366" />
        <path
           style="fill:url(#id20)"
           id="path368"
           d="m 2920,706 c 192,77 355,-63 342,-298 51,79 80,172 80,273 0,279 -226,505 -505,505 -279,0 -505,-226 -505,-505 0,-67 13,-130 36,-188 v 0 c 43,-130 126,-248 227,-364 156,-178 235,-362 206,-546 136,214 162,412 93,596 -65,171 -245,418 27,527 z"
           class="fil38" />
      </g>
    </g>
    <path
       style="fill:none"
       id="path370"
       d="m 1334,790 c 18,127 1,240 -59,339 -97,159 -92,284 36,318 119,32 232,-63 220,-230 -10,-148 -84,-289 -196,-426 z"
       class="fil12" />
  </g>
</svg>
